<svg width="24" height="24" viewBox="0 0 24 24" fill="none" xmlns="http://www.w3.org/2000/svg">
<path d="M19.1698 12.967V17.9144H16.3014V13.2986C16.3014 12.1396 15.8873 11.3482 14.8488 11.3482C14.0562 11.3482 13.5854 11.881 13.3775 12.397C13.302 12.5814 13.2825 12.8374 13.2825 13.096V17.9142H10.4139C10.4139 17.9142 10.4525 10.0966 10.4139 9.28734H13.2827V10.5098C13.2769 10.5195 13.2688 10.5289 13.2637 10.5381H13.2827V10.5098C13.6639 9.9233 14.3437 9.08477 15.8678 9.08477C17.755 9.08477 19.1698 10.3178 19.1698 12.967ZM7.4132 5.12891C6.43199 5.12891 5.79004 5.77299 5.79004 6.61923C5.79004 7.44749 6.41338 8.11019 7.37555 8.11019H7.39416C8.39462 8.11019 9.01668 7.44749 9.01668 6.61923C8.99764 5.77299 8.39462 5.12891 7.4132 5.12891ZM5.96053 17.9144H8.82801V9.28734H5.96053V17.9144Z" fill="#050505"/>
</svg>
