<svg width="24" height="24" viewBox="0 0 24 24" fill="none" xmlns="http://www.w3.org/2000/svg">
<path d="M20 12C20 16.4183 16.4183 20 12 20M20 12C20 7.58172 16.4183 4 12 4M20 12C20 13.9644 16.4178 15.5556 12 15.5556C7.58222 15.5556 4 13.9644 4 12M20 12C20 10.0356 16.4178 8.44444 12 8.44444C7.58222 8.44444 4 10.0356 4 12M12 20C7.58172 20 4 16.4183 4 12M12 20C13.9637 20 15.5556 16.4183 15.5556 12C15.5556 7.58172 13.9637 4 12 4M12 20C10.0363 20 8.44444 16.4183 8.44444 12C8.44444 7.58172 10.0363 4 12 4M4 12C4 7.58172 7.58172 4 12 4" stroke="#050505"/>
</svg>
