<svg width="24" height="24" viewBox="0 0 24 24" fill="none" xmlns="http://www.w3.org/2000/svg">
<path fill-rule="evenodd" clip-rule="evenodd" d="M4.83647 9.77203C5.21218 9.49359 5.65284 9.24524 6.1403 9.02864C6.78164 8.74365 7.51964 8.50665 8.32778 8.32766C8.50682 7.51947 8.74389 6.78143 9.02894 6.14008C9.24557 5.65266 9.49393 5.21204 9.77236 4.83637C7.42187 5.56649 5.5667 7.42159 4.83647 9.77203ZM12 3.5C7.30558 3.5 3.5 7.30558 3.5 12C3.5 16.6944 7.30558 20.5 12 20.5C16.6944 20.5 20.5 16.6944 20.5 12C20.5 7.30558 16.6944 3.5 12 3.5ZM12 4.5C11.6718 4.5 11.3214 4.64759 10.9607 4.99088C10.5974 5.33662 10.2475 5.86055 9.94275 6.54621C9.73498 7.0137 9.55277 7.54611 9.40286 8.13037C10.2231 8.00928 11.0964 7.94444 12 7.94444C12.9036 7.94444 13.7769 8.00928 14.5971 8.13037C14.4472 7.54611 14.265 7.0137 14.0573 6.54622C13.7525 5.86055 13.4026 5.33662 13.0393 4.99088C12.6786 4.64759 12.3282 4.5 12 4.5ZM15.6722 8.32766C15.4932 7.51947 15.2561 6.78143 14.9711 6.14008C14.7544 5.65266 14.5061 5.21204 14.2276 4.83637C16.5781 5.56649 18.4333 7.42159 19.1635 9.77203C18.7878 9.49359 18.3472 9.24524 17.8597 9.02864C17.2184 8.74365 16.4804 8.50665 15.6722 8.32766ZM14.821 9.17895C13.9517 9.02826 13.0004 8.94444 12 8.94444C10.9996 8.94444 10.0483 9.02826 9.17902 9.17895C9.02829 10.0482 8.94444 10.9995 8.94444 12C8.94444 13.0005 9.0283 13.9518 9.17902 14.821C10.0483 14.9717 10.9996 15.0556 12 15.0556C13.0004 15.0556 13.9517 14.9717 14.821 14.821C14.9717 13.9518 15.0556 13.0005 15.0556 12C15.0556 10.9995 14.9717 10.0482 14.821 9.17895ZM15.8696 14.5973C15.9907 13.777 16.0556 12.9037 16.0556 12C16.0556 11.0963 15.9907 10.223 15.8696 9.40274C16.4538 9.5526 16.9862 9.73475 17.4536 9.94248C18.1393 10.2472 18.6633 10.5971 19.0091 10.9604C19.3524 11.3211 19.5 11.6716 19.5 12C19.5 12.3284 19.3524 12.6789 19.0091 13.0396C18.6633 13.4029 18.1393 13.7528 17.4536 14.0575C16.9862 14.2652 16.4538 14.4474 15.8696 14.5973ZM14.5971 15.8696C13.7769 15.9907 12.9036 16.0556 12 16.0556C11.0964 16.0556 10.2231 15.9907 9.40287 15.8696C9.55277 16.4539 9.73498 16.9863 9.94275 17.4538C10.2475 18.1395 10.5974 18.6634 10.9607 19.0091C11.3214 19.3524 11.6718 19.5 12 19.5C12.3282 19.5 12.6786 19.3524 13.0393 19.0091C13.4026 18.6634 13.7525 18.1395 14.0573 17.4538C14.265 16.9863 14.4472 16.4539 14.5971 15.8696ZM14.2276 19.1636C14.5061 18.788 14.7544 18.3473 14.9711 17.8599C15.2561 17.2186 15.4932 16.4805 15.6722 15.6723C16.4804 15.4934 17.2184 15.2564 17.8597 14.9714C18.3472 14.7548 18.7878 14.5064 19.1635 14.228C18.4333 16.5784 16.5781 18.4335 14.2276 19.1636ZM9.77236 19.1636C7.42187 18.4335 5.5667 16.5784 4.83647 14.228C5.21218 14.5064 5.65284 14.7548 6.1403 14.9714C6.78164 15.2564 7.51965 15.4934 8.32778 15.6723C8.50682 16.4805 8.74389 17.2186 9.02894 17.8599C9.24557 18.3473 9.49393 18.788 9.77236 19.1636ZM8.13043 14.5973C7.54623 14.4474 7.01384 14.2652 6.54637 14.0575C5.86067 13.7528 5.33671 13.4029 4.99095 13.0396C4.64764 12.6789 4.5 12.3284 4.5 12C4.5 11.6716 4.64764 11.3211 4.99095 10.9604C5.33671 10.5971 5.86067 10.2472 6.54637 9.94248C7.01384 9.73475 7.54622 9.5526 8.13043 9.40274C8.00931 10.223 7.94444 11.0963 7.94444 12C7.94444 12.9037 8.00931 13.777 8.13043 14.5973Z" fill="#050505"/>
</svg>
