<svg width="24" height="24" viewBox="0 0 24 24" fill="none" xmlns="http://www.w3.org/2000/svg">
<path d="M18 10.7955C18 7.58523 15.3235 5 12 5C8.67647 5 6 7.58523 6 10.7955C6 13.5376 10.378 18.3113 11.6546 19.645C11.8454 19.8443 12.1546 19.8443 12.3454 19.645C13.622 18.3113 18 13.5376 18 10.7955ZM9.20588 10.6818C9.20588 9.20455 10.4706 7.98295 12 7.98295C13.5294 7.98295 14.7941 9.17614 14.7941 10.6818C14.7941 12.1591 13.5588 13.3807 12 13.3807C10.4706 13.3807 9.20588 12.1591 9.20588 10.6818Z" fill="#050505"/>
</svg>
