<svg width="24" height="24" viewBox="0 0 24 24" fill="none" xmlns="http://www.w3.org/2000/svg">
<path d="M19.3506 8.62241C18.8363 8.85043 18.2832 9.00466 17.703 9.07354C18.2954 8.71867 18.7499 8.15715 18.9645 7.48697C18.4102 7.81575 17.7961 8.05426 17.143 8.18282C16.6198 7.62559 15.8743 7.27734 15.0488 7.27734C13.4651 7.27734 12.1805 8.56187 12.1805 10.1457C12.1805 10.3705 12.206 10.5893 12.2552 10.7994C9.87138 10.6798 7.75774 9.53794 6.34295 7.80206C6.0961 8.2256 5.95449 8.71867 5.95449 9.24424C5.95449 10.2391 6.46124 11.1174 7.23046 11.6317C6.7605 11.6169 6.31792 11.4879 5.93139 11.2725C5.93117 11.2847 5.93117 11.2969 5.93117 11.3089C5.93117 12.6987 6.92029 13.8578 8.2322 14.1212C7.99176 14.187 7.73785 14.2219 7.47667 14.2219C7.29142 14.2219 7.11195 14.2042 6.93697 14.1708C7.3019 15.3101 8.36097 16.1394 9.6164 16.1627C8.63456 16.9321 7.39795 17.3906 6.05374 17.3906C5.82272 17.3906 5.59384 17.3771 5.36987 17.3503C6.63857 18.1645 8.14663 18.6391 9.76635 18.6391C15.0422 18.6391 17.9274 14.2685 17.9274 10.4779C17.9274 10.3536 17.9246 10.2297 17.9191 10.1069C18.48 9.70265 18.9662 9.19761 19.3506 8.62241Z" fill="#050505"/>
</svg>
