<svg width="24" height="24" viewBox="0 0 24 24" fill="none" xmlns="http://www.w3.org/2000/svg">
<g clip-path="url(#clip0_2003_5182)">
<path fill-rule="evenodd" clip-rule="evenodd" d="M19.5449 14.8743C18.8521 15.9902 17.5693 16.2156 16.9581 16.2156C15.9917 16.2156 15.2545 15.8084 14.7058 15.2014C13.9756 15.8192 13.0313 16.1916 12 16.1916C9.68503 16.1916 7.80838 14.315 7.80838 12C7.80838 9.68503 9.68503 7.80838 12 7.80838C14.315 7.80838 16.1916 9.68503 16.1916 12C16.1916 13.2837 16.1916 12.771 16.1916 13.2695C16.1916 13.7679 16.7668 13.988 17.0299 13.988C17.2931 13.988 17.7485 13.7477 17.7485 13.2934C17.7485 12.8391 17.7485 12.3749 17.7485 12C17.7485 8.8252 15.1748 6.2515 12 6.2515C8.8252 6.2515 6.2515 8.8252 6.2515 12C6.2515 15.1748 8.8252 17.7485 12 17.7485C12.7931 17.7485 13.5414 17.5703 14.2359 17.2975C15.0154 16.9912 15.6148 17.6175 15.7844 17.988C15.954 18.3586 15.8597 19.0404 14.9886 19.4231C14.0772 19.8235 13.0566 20 12 20C7.58172 20 4 16.4183 4 12C4 7.58172 7.58172 4 12 4C16.4183 4 20 7.58172 20 12C20 13.2353 19.9474 14.226 19.5449 14.8743ZM12 10.0838C10.9417 10.0838 10.0838 10.9417 10.0838 12C10.0838 13.0583 10.9417 13.9162 12 13.9162C13.0583 13.9162 13.9162 13.0583 13.9162 12C13.9162 10.9417 13.0583 10.0838 12 10.0838Z" fill="#050505"/>
</g>
<defs>
<clipPath id="clip0_2003_5182">
<rect width="16" height="16" fill="white" transform="translate(4 4)"/>
</clipPath>
</defs>
</svg>
