<svg width="172" height="26" viewBox="0 0 172 26" fill="none" xmlns="http://www.w3.org/2000/svg">
<path d="M19.712 23.264C18.6453 23.9893 17.3013 24.5547 15.68 24.96C14.08 25.3653 12.3733 25.568 10.56 25.568C8.29867 25.568 6.37867 25.2907 4.8 24.736C3.22133 24.16 2.02667 23.3707 1.216 22.368C0.405333 21.344 0 20.1813 0 18.88C0 17.6853 0.330667 16.6293 0.992 15.712C1.65333 14.7947 2.56 14.112 3.712 13.664C2.83733 13.1947 2.15467 12.5547 1.664 11.744C1.19467 10.9333 0.96 10.0267 0.96 9.024C0.96 7.808 1.33333 6.69867 2.08 5.696C2.82667 4.69333 3.95733 3.89333 5.472 3.296C6.98667 2.69867 8.84267 2.4 11.04 2.4C12.4907 2.4 13.9093 2.54933 15.296 2.848C16.6827 3.12533 17.888 3.50933 18.912 4L17.472 7.968C15.5093 7.05067 13.4293 6.592 11.232 6.592C9.568 6.592 8.30933 6.848 7.456 7.36C6.624 7.85067 6.208 8.52267 6.208 9.376C6.208 10.1653 6.48533 10.7733 7.04 11.2C7.616 11.6053 8.48 11.808 9.632 11.808H15.744V15.904H9.312C8.01067 15.904 7.008 16.128 6.304 16.576C5.6 17.024 5.248 17.6747 5.248 18.528C5.248 19.424 5.696 20.128 6.592 20.64C7.50933 21.1307 8.90667 21.376 10.784 21.376C12.1067 21.376 13.4293 21.2053 14.752 20.864C16.0747 20.5013 17.1947 20 18.112 19.36L19.712 23.264Z" fill="white"/>
<path d="M39.525 7.968V25.184H34.789V23.136C34.1277 23.8827 33.3383 24.4587 32.421 24.864C31.5037 25.248 30.5117 25.44 29.445 25.44C27.1837 25.44 25.3917 24.7893 24.069 23.488C22.7463 22.1867 22.085 20.256 22.085 17.696V7.968H27.077V16.96C27.077 19.7333 28.2397 21.12 30.565 21.12C31.7597 21.12 32.7197 20.736 33.445 19.968C34.1703 19.1787 34.533 18.016 34.533 16.48V7.968H39.525Z" fill="white"/>
<path d="M48.9178 10.24C49.5151 9.408 50.3151 8.77867 51.3177 8.352C52.3417 7.92533 53.5151 7.712 54.8377 7.712V12.32C54.2831 12.2773 53.9098 12.256 53.7178 12.256C52.2884 12.256 51.1684 12.6613 50.3577 13.472C49.5471 14.2613 49.1418 15.456 49.1418 17.056V25.184H44.1497V7.968H48.9178V10.24Z" fill="white"/>
<path d="M65.8418 25.44C64.0284 25.44 62.3964 25.0667 60.9458 24.32C59.5164 23.552 58.3964 22.496 57.5858 21.152C56.7751 19.808 56.3698 18.2827 56.3698 16.576C56.3698 14.8693 56.7751 13.344 57.5858 12C58.3964 10.656 59.5164 9.61067 60.9458 8.864C62.3964 8.096 64.0284 7.712 65.8418 7.712C67.6551 7.712 69.2764 8.096 70.7057 8.864C72.1351 9.61067 73.2551 10.656 74.0658 12C74.8764 13.344 75.2818 14.8693 75.2818 16.576C75.2818 18.2827 74.8764 19.808 74.0658 21.152C73.2551 22.496 72.1351 23.552 70.7057 24.32C69.2764 25.0667 67.6551 25.44 65.8418 25.44ZM65.8418 21.344C67.1218 21.344 68.1671 20.9173 68.9778 20.064C69.8098 19.1893 70.2258 18.0267 70.2258 16.576C70.2258 15.1253 69.8098 13.9733 68.9778 13.12C68.1671 12.2453 67.1218 11.808 65.8418 11.808C64.5618 11.808 63.5058 12.2453 62.6738 13.12C61.8418 13.9733 61.4258 15.1253 61.4258 16.576C61.4258 18.0267 61.8418 19.1893 62.6738 20.064C63.5058 20.9173 64.5618 21.344 65.8418 21.344Z" fill="white"/>
<path d="M88.9865 24.352C88.4958 24.7147 87.8878 24.992 87.1625 25.184C86.4585 25.3547 85.7225 25.44 84.9545 25.44C82.8852 25.44 81.2958 24.9173 80.1865 23.872C79.0772 22.8267 78.5225 21.2907 78.5225 19.264V4.16H83.5145V8.352H87.7705V12.192H83.5145V19.2C83.5145 19.9253 83.6958 20.4907 84.0585 20.896C84.4212 21.28 84.9438 21.472 85.6265 21.472C86.3945 21.472 87.0772 21.2587 87.6745 20.832L88.9865 24.352Z" fill="white"/>
<path d="M91.806 7.968H96.798V25.184H91.806V7.968ZM94.302 5.568C93.3847 5.568 92.638 5.30133 92.062 4.768C91.486 4.23467 91.198 3.57333 91.198 2.784C91.198 1.99467 91.486 1.33333 92.062 0.800001C92.638 0.266667 93.3847 0 94.302 0C95.2193 0 95.966 0.256001 96.542 0.768002C97.118 1.28 97.406 1.92 97.406 2.688C97.406 3.52 97.118 4.21333 96.542 4.768C95.966 5.30133 95.2193 5.568 94.302 5.568Z" fill="white"/>
<path d="M109.751 25.44C107.916 25.44 106.263 25.0667 104.791 24.32C103.34 23.552 102.199 22.496 101.367 21.152C100.556 19.808 100.151 18.2827 100.151 16.576C100.151 14.8693 100.556 13.344 101.367 12C102.199 10.656 103.34 9.61067 104.791 8.864C106.263 8.096 107.916 7.712 109.751 7.712C111.564 7.712 113.143 8.096 114.487 8.864C115.852 9.61067 116.844 10.688 117.463 12.096L113.591 14.176C112.695 12.5973 111.404 11.808 109.719 11.808C108.418 11.808 107.34 12.2347 106.487 13.088C105.634 13.9413 105.207 15.104 105.207 16.576C105.207 18.048 105.634 19.2107 106.487 20.064C107.34 20.9173 108.418 21.344 109.719 21.344C111.426 21.344 112.716 20.5547 113.591 18.976L117.463 21.088C116.844 22.4533 115.852 23.52 114.487 24.288C113.143 25.056 111.564 25.44 109.751 25.44Z" fill="white"/>
<path d="M127.604 18.432L125.204 20.8V25.184H120.212V1.44H125.204V14.88L132.5 7.968H138.452L131.284 15.264L139.092 25.184H133.044L127.604 18.432Z" fill="white"/>
<path d="M149.259 21.44C150.155 21.44 150.945 21.312 151.627 21.056C152.331 20.7787 152.982 20.352 153.579 19.776L156.235 22.656C154.614 24.512 152.246 25.44 149.131 25.44C147.19 25.44 145.473 25.0667 143.979 24.32C142.486 23.552 141.334 22.496 140.523 21.152C139.713 19.808 139.307 18.2827 139.307 16.576C139.307 14.8907 139.702 13.376 140.491 12.032C141.302 10.6667 142.401 9.61067 143.787 8.864C145.195 8.096 146.774 7.712 148.523 7.712C150.166 7.712 151.659 8.064 153.003 8.768C154.347 9.45067 155.414 10.4533 156.203 11.776C157.014 13.0773 157.419 14.624 157.419 16.416L144.683 18.88C145.046 19.7333 145.611 20.3733 146.379 20.8C147.169 21.2267 148.129 21.44 149.259 21.44ZM148.523 11.488C147.265 11.488 146.241 11.8933 145.451 12.704C144.662 13.5147 144.246 14.6347 144.203 16.064L152.587 14.432C152.353 13.536 151.873 12.8213 151.147 12.288C150.422 11.7547 149.547 11.488 148.523 11.488Z" fill="white"/>
<path d="M171.143 24.352C170.652 24.7147 170.044 24.992 169.319 25.184C168.615 25.3547 167.879 25.44 167.111 25.44C165.041 25.44 163.452 24.9173 162.343 23.872C161.233 22.8267 160.679 21.2907 160.679 19.264V4.16H165.671V8.352H169.927V12.192H165.671V19.2C165.671 19.9253 165.852 20.4907 166.215 20.896C166.577 21.28 167.1 21.472 167.783 21.472C168.551 21.472 169.233 21.2587 169.831 20.832L171.143 24.352Z" fill="white"/>
</svg>
